<svg width="100" height="28" viewBox="0 0 100 28" fill="none" xmlns="http://www.w3.org/2000/svg">
<path d="M35.8482 13.3791C35.8482 12.0531 36.1443 10.8687 36.7365 9.82597C37.3416 8.77034 38.159 7.95287 39.1889 7.37356C40.2317 6.78137 41.3967 6.48528 42.6841 6.48528C44.1903 6.48528 45.5098 6.87149 46.6427 7.6439C47.7756 8.41632 48.5673 9.48482 49.0179 10.8494H45.9089C45.5999 10.2057 45.1622 9.72298 44.5958 9.40114C44.0422 9.0793 43.3986 8.91838 42.6648 8.91838C41.8795 8.91838 41.1779 9.10505 40.5599 9.47838C39.9549 9.83884 39.4786 10.3538 39.131 11.0232C38.7963 11.6926 38.6289 12.4779 38.6289 13.3791C38.6289 14.2674 38.7963 15.0526 39.131 15.7349C39.4786 16.4044 39.9549 16.9257 40.5599 17.2991C41.1779 17.6595 41.8795 17.8398 42.6648 17.8398C43.3986 17.8398 44.0422 17.6788 44.5958 17.357C45.1622 17.0223 45.5999 16.5331 45.9089 15.8894H49.0179C48.5673 17.2669 47.7756 18.3418 46.6427 19.1142C45.5227 19.8738 44.2032 20.2536 42.6841 20.2536C41.3967 20.2536 40.2317 19.9639 39.1889 19.3846C38.159 18.7924 37.3416 17.9749 36.7365 16.9322C36.1443 15.8894 35.8482 14.7051 35.8482 13.3791ZM55.498 20.3115C54.4681 20.3115 53.5412 20.0862 52.7173 19.6356C51.8934 19.1722 51.2433 18.5221 50.767 17.6853C50.3035 16.8485 50.0718 15.883 50.0718 14.7887C50.0718 13.6945 50.31 12.729 50.7863 11.8922C51.2755 11.0554 51.9385 10.4117 52.7753 9.96114C53.612 9.4977 54.5454 9.26597 55.5753 9.26597C56.6051 9.26597 57.5385 9.4977 58.3753 9.96114C59.212 10.4117 59.8686 11.0554 60.3449 11.8922C60.8341 12.729 61.0787 13.6945 61.0787 14.7887C61.0787 15.883 60.8277 16.8485 60.3256 17.6853C59.8364 18.5221 59.167 19.1722 58.3173 19.6356C57.4805 20.0862 56.5408 20.3115 55.498 20.3115ZM55.498 17.9556C55.9872 17.9556 56.4442 17.8398 56.869 17.608C57.3067 17.3634 57.6543 17.003 57.9118 16.5267C58.1693 16.0503 58.298 15.471 58.298 14.7887C58.298 13.7717 58.0277 12.9929 57.487 12.4522C56.9592 11.8986 56.309 11.6218 55.5366 11.6218C54.7642 11.6218 54.1141 11.8986 53.5863 12.4522C53.0713 12.9929 52.8139 13.7717 52.8139 14.7887C52.8139 15.8057 53.0649 16.591 53.567 17.1446C54.0819 17.6853 54.7256 17.9556 55.498 17.9556ZM65.1859 5.84804V20.1377H62.4825V5.84804H65.1859ZM69.9811 5.84804V20.1377H67.2776V5.84804H69.9811ZM71.3776 14.7501C71.3776 13.6687 71.59 12.7096 72.0148 11.8729C72.4525 11.0361 73.0383 10.3924 73.7721 9.94183C74.5188 9.49126 75.3491 9.26597 76.2631 9.26597C77.0613 9.26597 77.7565 9.42689 78.3486 9.74873C78.9537 10.0706 79.4365 10.4761 79.7969 10.9653V9.43976H82.5197V20.1377H79.7969V18.5736C79.4493 19.0756 78.9666 19.494 78.3486 19.8287C77.7436 20.1506 77.042 20.3115 76.2438 20.3115C75.3427 20.3115 74.5188 20.0798 73.7721 19.6163C73.0383 19.1529 72.4525 18.5028 72.0148 17.666C71.59 16.8163 71.3776 15.8444 71.3776 14.7501ZM79.7969 14.7887C79.7969 14.1322 79.6682 13.5722 79.4107 13.1087C79.1532 12.6324 78.8056 12.2719 78.3679 12.0274C77.9302 11.7699 77.4604 11.6411 76.9583 11.6411C76.4562 11.6411 75.9928 11.7634 75.5679 12.008C75.1431 12.2526 74.7955 12.6131 74.5252 13.0894C74.2677 13.5529 74.139 14.1064 74.139 14.7501C74.139 15.3938 74.2677 15.9602 74.5252 16.4494C74.7955 16.9257 75.1431 17.2926 75.5679 17.5501C76.0056 17.8076 76.4691 17.9363 76.9583 17.9363C77.4604 17.9363 77.9302 17.814 78.3679 17.5694C78.8056 17.3119 79.1532 16.9515 79.4107 16.488C79.6682 16.0117 79.7969 15.4453 79.7969 14.7887ZM87.2842 11.0039C87.6318 10.489 88.1081 10.0706 88.7132 9.74873C89.3311 9.42689 90.0327 9.26597 90.818 9.26597C91.732 9.26597 92.5559 9.49126 93.2897 9.94183C94.0364 10.3924 94.6221 11.0361 95.047 11.8729C95.4847 12.6968 95.7035 13.6559 95.7035 14.7501C95.7035 15.8444 95.4847 16.8163 95.047 17.666C94.6221 18.5028 94.0364 19.1529 93.2897 19.6163C92.5559 20.0798 91.732 20.3115 90.818 20.3115C90.0198 20.3115 89.3182 20.157 88.7132 19.848C88.121 19.5262 87.6447 19.1142 87.2842 18.6122V20.1377H84.5807V5.84804H87.2842V11.0039ZM92.9421 14.7501C92.9421 14.1064 92.807 13.5529 92.5366 13.0894C92.2791 12.6131 91.9316 12.2526 91.4939 12.008C91.069 11.7634 90.6056 11.6411 90.1035 11.6411C89.6143 11.6411 89.1509 11.7699 88.7132 12.0274C88.2883 12.2719 87.9407 12.6324 87.6704 13.1087C87.4129 13.5851 87.2842 14.1451 87.2842 14.7887C87.2842 15.4324 87.4129 15.9924 87.6704 16.4687C87.9407 16.9451 88.2883 17.3119 88.7132 17.5694C89.1509 17.814 89.6143 17.9363 90.1035 17.9363C90.6056 17.9363 91.069 17.8076 91.4939 17.5501C91.9316 17.2926 92.2791 16.9257 92.5366 16.4494C92.807 15.9731 92.9421 15.4067 92.9421 14.7501Z" fill="#292930"/>
<path d="M98.286 20.2729C97.7968 20.2729 97.3912 20.1248 97.0694 19.8287C96.7604 19.5198 96.606 19.14 96.606 18.6894C96.606 18.2388 96.7604 17.8655 97.0694 17.5694C97.3912 17.2605 97.7968 17.106 98.286 17.106C98.7623 17.106 99.1549 17.2605 99.4639 17.5694C99.7729 17.8655 99.9273 18.2388 99.9273 18.6894C99.9273 19.14 99.7729 19.5198 99.4639 19.8287C99.1549 20.1248 98.7623 20.2729 98.286 20.2729Z" fill="#5956E9"/>
<rect width="27.5862" height="27.5862" rx="7.88177" fill="#ECF2F6"/>
<circle cx="8.86716" cy="8.86667" r="3.94089" fill="#5956E9"/>
<circle cx="8.86716" cy="18.7192" r="3.94089" fill="#FFDEE4"/>
<circle cx="18.7192" cy="8.86667" r="3.94089" fill="#FAB8C4"/>
<circle cx="18.7192" cy="18.7192" r="3.94089" fill="#5956E9"/>
</svg>
